<svg width="20" height="20" viewBox="0 0 20 20" fill="none" xmlns="http://www.w3.org/2000/svg">
<g filter="url(#filter0_b_604_1605)">
<path d="M17.3774 7.39638L12.5809 6.66641L10.4367 2.11446C10.3782 1.98983 10.2818 1.88894 10.1628 1.82762C9.86434 1.67332 9.50163 1.8019 9.35239 2.11446L7.20823 6.66641L2.41174 7.39638C2.27951 7.41617 2.1586 7.48145 2.06603 7.58036C1.95413 7.70081 1.89246 7.86286 1.89458 8.03089C1.89671 8.19893 1.96245 8.35921 2.07737 8.47651L5.54769 12.0195L4.72781 17.0225C4.70859 17.1389 4.72088 17.2586 4.76331 17.368C4.80574 17.4775 4.8766 17.5723 4.96786 17.6417C5.05912 17.7111 5.16712 17.7523 5.27962 17.7607C5.39213 17.7691 5.50463 17.7444 5.60437 17.6892L9.89457 15.3272L14.1848 17.6892C14.3019 17.7545 14.4379 17.7762 14.5683 17.7525C14.897 17.6932 15.118 17.3667 15.0613 17.0225L14.2414 12.0195L17.7118 8.47651C17.8062 8.37957 17.8686 8.25297 17.8875 8.11449C17.9385 7.76829 17.708 7.44782 17.3774 7.39638Z" fill="#007AFF"/>
</g>
<defs>
<filter id="filter0_b_604_1605" x="-4.72641" y="-4.85861" width="29.2419" height="29.2419" filterUnits="userSpaceOnUse" color-interpolation-filters="sRGB">
<feFlood flood-opacity="0" result="BackgroundImageFix"/>
<feGaussianBlur in="BackgroundImageFix" stdDeviation="3.31047"/>
<feComposite in2="SourceAlpha" operator="in" result="effect1_backgroundBlur_604_1605"/>
<feBlend mode="normal" in="SourceGraphic" in2="effect1_backgroundBlur_604_1605" result="shape"/>
</filter>
</defs>
</svg>
