<svg width="17" height="17" viewBox="0 0 17 17" fill="none" xmlns="http://www.w3.org/2000/svg">
<g filter="url(#filter0_b_603_1734)">
<path d="M16.3774 6.39638L11.5809 5.66641L9.43675 1.11446C9.37819 0.989835 9.28184 0.888944 9.16283 0.827619C8.86434 0.673315 8.50163 0.801901 8.35239 1.11446L6.20823 5.66641L1.41174 6.39638C1.27951 6.41617 1.1586 6.48145 1.06603 6.58036C0.954126 6.70081 0.892459 6.86286 0.894584 7.03089C0.89671 7.19893 0.962453 7.35921 1.07737 7.47651L4.54769 11.0195L3.72781 16.0225C3.70859 16.1389 3.72088 16.2586 3.76331 16.368C3.80574 16.4775 3.8766 16.5723 3.96786 16.6417C4.05912 16.7111 4.16712 16.7523 4.27962 16.7607C4.39213 16.7691 4.50463 16.7444 4.60437 16.6892L8.89457 14.3272L13.1848 16.6892C13.3019 16.7545 13.4379 16.7762 13.5683 16.7525C13.897 16.6932 14.118 16.3667 14.0613 16.0225L13.2414 11.0195L16.7118 7.47651C16.8062 7.37957 16.8686 7.25297 16.8875 7.11449C16.9385 6.76829 16.708 6.44782 16.3774 6.39638Z" fill="#007AFF"/>
</g>
<defs>
<filter id="filter0_b_603_1734" x="-5.72641" y="-5.85861" width="29.2419" height="29.2419" filterUnits="userSpaceOnUse" color-interpolation-filters="sRGB">
<feFlood flood-opacity="0" result="BackgroundImageFix"/>
<feGaussianBlur in="BackgroundImageFix" stdDeviation="3.31047"/>
<feComposite in2="SourceAlpha" operator="in" result="effect1_backgroundBlur_603_1734"/>
<feBlend mode="normal" in="SourceGraphic" in2="effect1_backgroundBlur_603_1734" result="shape"/>
</filter>
</defs>
</svg>
